# xmcd CD database file
#
# Track frame offsets:
#	150
#	13455
#	26068
#	39732
#	48134
#	63496
#	68286
#	83132
#	88101
#	100075
#	111697
#	126581
#	136964
#	142682
#
# Disc length: 2050 seconds
#
# Revision: 0
# Processed by: cddbd v1.5.2PL0 Copyright (c) Steve Scherf et al.
# Submitted via: CDex 1.51
#
DISCID=c308000e
DTITLE=leadbelly - defense blues
DYEAR=2005
DGENRE=Blues
TTITLE0=sweet mary blues
TTITLE1=grasshoppers in my pillow
TTITLE2=when a man's a long way from home
TTITLE3=by and by when the morning comes
TTITLE4=everytime I feel the spirit/swing lo, sweet chariot/they hung him on
TTITLE5=swing low sweet chariot
TTITLE6=jule Ann Johnson
TTITLE7=christmas is coming
TTITLE8=we're in the same boat brother
TTITLE9=diggi'n my potatoes
TTITLE10=defense blues
TTITLE11=pigmeat
TTITLE12=green corn
TTITLE13=fiddler's dream
EXTD=YEAR: 2005
EXTT0=
EXTT1=
EXTT2=
EXTT3=
EXTT4=
EXTT5=
EXTT6=
EXTT7=
EXTT8=
EXTT9=
EXTT10=
EXTT11=
EXTT12=
EXTT13=
PLAYORDER=
